<?xml version="1.0" standalone="no"?>
<!DOCTYPE svg PUBLIC "-//W3C//DTD SVG 20010904//EN"
 "http://www.w3.org/TR/2001/REC-SVG-20010904/DTD/svg10.dtd">
<svg version="1.0" xmlns="http://www.w3.org/2000/svg"
 width="1369.000000pt" height="1453.000000pt" viewBox="0 0 1369.000000 1453.000000"
 preserveAspectRatio="xMidYMid meet">

<g transform="translate(0.000000,1453.000000) scale(0.100000,-0.100000)"
fill="#000000" stroke="none">
<path d="M6465 14439 c-2505 -148 -4698 -1784 -5567 -4154 -181 -494 -297
-1012 -355 -1585 -22 -221 -25 -880 -5 -1095 55 -582 169 -1103 351 -1610 75
-207 193 -485 206 -485 5 0 86 36 181 81 l171 81 -62 146 c-241 567 -379 1101
-452 1752 -22 199 -25 920 -5 1130 98 996 417 1914 949 2725 348 530 784 1009
1281 1407 1278 1023 2918 1458 4556 1208 1492 -228 2872 -1064 3803 -2305 962
-1281 1363 -2895 1117 -4495 -70 -457 -208 -946 -387 -1375 -58 -138 -73 -183
-64 -192 7 -6 99 -52 205 -102 l193 -90 25 57 c295 661 466 1320 536 2067 20
215 17 874 -5 1095 -41 411 -102 744 -203 1107 -551 1993 -2059 3605 -4014
4290 -772 271 -1631 390 -2455 342z"/>
<path d="M4692 11921 c-1134 -560 -2065 -1021 -2069 -1025 -4 -3 259 -4 583
-1 324 3 2231 8 4237 11 2007 4 3645 10 3640 14 -7 6 -4289 2005 -4318 2016
-5 2 -938 -455 -2073 -1015z m4005 -4 c1052 -490 1911 -892 1909 -894 -4 -4
-7519 -24 -7523 -20 -7 8 3674 1816 3687 1811 8 -3 875 -406 1927 -897z"/>
<path d="M6748 12093 c7 -3 16 -2 19 1 4 3 -2 6 -13 5 -11 0 -14 -3 -6 -6z"/>
<path d="M6942 11995 c-12 -25 -20 -45 -17 -45 7 0 47 81 43 86 -3 2 -14 -17
-26 -41z"/>
<path d="M6548 12016 c-20 -15 -23 -34 -7 -56 8 -12 9 -10 4 8 -5 16 -1 30 11
43 20 22 17 24 -8 5z"/>
<path d="M6738 11963 c12 -2 30 -2 40 0 9 3 -1 5 -23 4 -22 0 -30 -2 -17 -4z"/>
<path d="M6883 11937 c9 -8 15 -21 11 -30 -3 -8 0 -18 7 -23 8 -4 10 -3 5 4
-4 6 -2 21 4 32 6 12 7 20 1 20 -5 0 -18 3 -28 6 -17 5 -17 5 0 -9z"/>
<path d="M6484 11902 c3 -5 0 -13 -6 -15 -9 -4 -10 -6 -1 -6 17 -1 25 16 12
25 -7 4 -9 3 -5 -4z"/>
<path d="M6806 11897 c3 -10 9 -15 12 -12 3 3 0 11 -7 18 -10 9 -11 8 -5 -6z"/>
<path d="M6570 11895 c0 -5 5 -17 10 -25 5 -8 10 -10 10 -5 0 6 -5 17 -10 25
-5 8 -10 11 -10 5z"/>
<path d="M6821 11844 c0 -11 3 -14 6 -6 3 7 2 16 -1 19 -3 4 -6 -2 -5 -13z"/>
<path d="M6765 11831 c-3 -5 -2 -12 3 -15 5 -3 9 1 9 9 0 17 -3 19 -12 6z"/>
<path d="M6600 11825 c0 -5 5 -17 10 -25 5 -8 10 -10 10 -5 0 6 -5 17 -10 25
-5 8 -10 11 -10 5z"/>
<path d="M6971 11784 c0 -11 3 -14 6 -6 3 7 2 16 -1 19 -3 4 -6 -2 -5 -13z"/>
<path d="M6531 11780 c0 -14 28 -72 29 -59 0 4 -7 22 -15 40 -8 19 -14 27 -14
19z"/>
<path d="M6915 11760 c3 -5 8 -10 11 -10 2 0 4 5 4 10 0 6 -5 10 -11 10 -5 0
-7 -4 -4 -10z"/>
<path d="M6582 11680 c7 -11 17 -20 22 -20 5 0 1 9 -9 20 -10 11 -20 20 -22
20 -2 0 2 -9 9 -20z"/>
<path d="M6919 11683 c-13 -16 -12 -17 4 -4 16 13 21 21 13 21 -2 0 -10 -8
-17 -17z"/>
<path d="M6744 11648 l-19 -23 23 19 c21 18 27 26 19 26 -2 0 -12 -10 -23 -22z"/>
<path d="M6520 11649 c0 -5 5 -7 10 -4 6 3 10 8 10 11 0 2 -4 4 -10 4 -5 0
-10 -5 -10 -11z"/>
<path d="M6844 11634 c-18 -14 -18 -15 4 -4 12 6 22 13 22 15 0 8 -5 6 -26
-11z"/>
<path d="M6770 11606 c0 -2 8 -10 18 -17 15 -13 16 -12 3 4 -13 16 -21 21 -21
13z"/>
<path d="M6966 11577 c3 -10 9 -15 12 -12 3 3 0 11 -7 18 -10 9 -11 8 -5 -6z"/>
<path d="M6690 11556 c0 -2 7 -7 16 -10 8 -3 12 -2 9 4 -6 10 -25 14 -25 6z"/>
<path d="M6760 11510 c8 -5 20 -10 25 -10 6 0 3 5 -5 10 -8 5 -19 10 -25 10
-5 0 -3 -5 5 -10z"/>
<path d="M6825 11490 c-3 -6 1 -7 9 -4 18 7 21 14 7 14 -6 0 -13 -4 -16 -10z"/>
<path d="M3040 10465 l0 -235 408 0 407 -1 -66 -35 c-195 -104 -334 -283 -415
-534 -36 -115 -40 -228 -49 -1480 -7 -1097 -4 -1037 -66 -1161 -86 -172 -243
-273 -397 -254 l-54 7 6 -244 c4 -133 9 -276 12 -315 l6 -73 1059 0 1059 0 0
314 0 313 -52 7 c-102 14 -172 58 -218 139 l-30 52 0 1470 c1 856 5 1500 10
1542 22 166 111 252 262 253 l67 0 5 33 c3 17 7 123 9 235 l5 202 -984 0 -984
0 0 -235z m1084 -480 c100 -26 180 -91 245 -198 l24 -39 5 -1301 5 -1302 -23
-74 c-26 -81 -83 -175 -132 -216 -88 -74 -206 -95 -313 -54 -81 30 -178 127
-226 224 l-34 70 0 1290 1 1290 36 77 c71 150 192 239 333 247 12 1 47 -6 79
-14z"/>
<path d="M5210 10623 c0 -43 -3 -149 -7 -235 l-6 -158 60 0 c153 0 258 -92
331 -289 l28 -76 -6 -1395 -5 -1395 -30 -54 c-70 -127 -181 -206 -337 -240
l-83 -18 -3 -311 -2 -312 554 0 555 0 5 53 c4 28 7 170 9 313 l2 262 -77 15
c-149 29 -245 93 -295 195 l-27 56 2 1436 3 1435 29 61 c64 132 163 219 283
251 227 60 395 -150 423 -529 l7 -98 50 0 50 0 -6 167 c-4 91 -7 341 -7 555
l0 388 -750 0 -750 0 0 -77z"/>
<path d="M7000 10145 l0 -555 40 0 c45 0 41 -13 59 175 22 224 94 390 192 441
38 19 103 18 147 -3 56 -26 133 -111 175 -192 l37 -73 -1 -637 c-1 -350 -4
-1000 -8 -1446 l-6 -810 -28 -53 c-15 -29 -44 -70 -63 -92 -47 -52 -155 -105
-243 -120 l-71 -12 0 -320 0 -320 23 6 c12 3 259 6 550 6 l527 0 0 330 0 330
-73 0 c-59 0 -83 5 -125 26 -61 30 -138 112 -181 194 l-31 58 2 1439 3 1438
23 60 c30 79 84 157 133 191 56 39 140 45 203 15 137 -67 216 -251 216 -505
l0 -126 35 0 35 0 0 555 0 555 -785 0 -785 0 0 -555z"/>
<path d="M8830 10461 l0 -238 59 -6 c108 -9 192 -62 232 -145 l23 -47 6 -850
c7 -939 3 -887 73 -1018 58 -111 200 -217 332 -248 124 -29 278 -9 390 49 27
15 53 28 58 30 4 2 7 -111 7 -250 0 -254 0 -254 -29 -339 -89 -261 -221 -442
-445 -612 l-51 -39 -362 7 -363 8 0 -265 c0 -146 3 -286 6 -312 l7 -46 848 0
849 0 0 305 0 305 -272 0 -271 0 56 58 c101 106 211 297 267 462 22 65 23 75
42 1380 11 766 23 1337 29 1368 22 112 119 187 257 199 l72 6 0 238 0 239
-395 0 -395 0 0 -237 1 -238 55 -35 c39 -25 61 -47 77 -80 l22 -45 -4 -799
c-3 -875 -3 -865 -63 -959 -57 -88 -156 -135 -264 -124 -104 11 -208 79 -251
166 -17 34 -18 78 -15 806 2 461 8 795 14 832 12 77 58 156 115 199 23 18 47
34 54 36 10 3 14 64 17 241 l5 237 -397 0 -396 0 0 -239z"/>
<path d="M8080 5630 c-557 -41 -947 -181 -1181 -427 l-56 -58 -69 63 c-208
191 -462 300 -819 353 -190 28 -363 33 -916 24 l-495 -7 -49 -117 c-26 -64
-140 -332 -253 -596 -411 -967 -543 -1278 -540 -1280 2 -2 140 -46 308 -100
1007 -320 1758 -584 2420 -849 l265 -106 110 0 111 0 245 94 c699 269 1638
592 2574 886 127 40 231 73 232 74 1 1 -34 89 -78 196 -44 107 -175 429 -291
715 -334 828 -450 1109 -462 1123 -15 16 -867 25 -1056 12z m917 -136 l89 -7
383 -904 c211 -497 381 -906 378 -909 -2 -3 -119 -21 -258 -40 -836 -114
-1355 -234 -1829 -421 -258 -102 -560 -259 -747 -389 l-63 -43 0 1150 0 1150
51 50 c206 200 570 317 1119 358 139 10 752 14 877 5z m-3367 -34 c513 -36
828 -129 1010 -297 l70 -65 0 -1153 0 -1154 -92 58 c-611 384 -1344 607 -2643
802 -44 6 -84 15 -89 20 -7 6 679 1662 730 1761 14 26 18 27 107 31 226 8 775
6 907 -3z"/>
<path d="M1460 5451 c-41 -20 -76 -36 -78 -37 -1 -1 18 -45 43 -99 25 -54 45
-99 45 -101 0 -1 -40 -24 -90 -50 -49 -26 -90 -50 -90 -54 0 -26 238 -410 253
-410 7 0 46 20 87 45 41 25 80 45 85 45 6 0 61 -71 124 -157 98 -132 112 -157
99 -167 -8 -6 -47 -35 -86 -65 l-71 -54 22 -31 c35 -49 168 -215 236 -294 63
-73 80 -83 100 -58 7 8 37 34 67 57 l55 42 140 -139 139 -139 -72 -72 -72 -73
39 -41 c38 -39 271 -250 307 -278 15 -11 24 -7 70 36 29 26 63 57 75 67 l22
19 133 -118 c73 -65 139 -124 147 -131 11 -10 6 -24 -28 -82 -23 -39 -41 -75
-41 -80 0 -6 21 -26 48 -45 75 -56 335 -227 344 -227 4 0 32 34 63 75 30 41
58 75 61 75 4 0 85 -43 181 -96 136 -76 173 -100 168 -113 -3 -9 -20 -51 -37
-93 -31 -76 -32 -78 -12 -93 21 -16 379 -185 391 -185 4 0 27 36 51 80 24 44
49 80 55 80 7 0 93 -32 191 -70 99 -39 181 -70 182 -70 1 0 -9 -41 -23 -91
-14 -50 -21 -95 -16 -99 11 -11 417 -140 438 -140 2 0 18 43 35 95 25 76 35
95 48 91 10 -2 100 -21 201 -42 l183 -38 -7 -85 c-3 -47 -8 -93 -11 -102 -2
-9 2 -19 10 -22 29 -11 352 -59 411 -60 l59 -2 21 93 c11 51 23 94 28 94 4 1
95 -5 201 -12 225 -15 206 -2 206 -137 l0 -83 244 0 244 0 8 90 7 90 31 4 c39
6 301 26 342 26 31 0 31 -1 49 -85 l18 -85 34 0 c33 0 346 45 413 59 25 5 35
12 33 25 0 10 -4 52 -8 94 l-7 77 201 41 200 41 26 -76 c15 -42 31 -80 35 -85
4 -4 50 4 102 19 93 26 341 105 346 110 1 1 -7 39 -19 84 -12 44 -20 84 -17
87 7 6 359 144 369 144 4 0 26 -34 49 -75 23 -41 43 -75 45 -75 12 0 392 182
402 193 11 10 6 29 -22 96 -20 46 -34 85 -33 86 20 18 353 193 359 189 5 -3
29 -34 55 -69 25 -36 49 -65 53 -65 15 0 360 228 395 260 5 5 -1 24 -13 44
-11 20 -30 51 -41 70 l-21 35 147 130 147 130 46 -38 c25 -21 55 -48 65 -60
11 -11 24 -21 31 -21 21 0 355 305 355 324 0 6 -29 41 -65 76 l-65 64 58 59
c31 32 96 94 143 137 l86 79 65 -54 c37 -30 70 -55 75 -54 16 1 323 376 323
394 0 6 -24 27 -53 48 -28 21 -65 48 -80 61 l-29 23 116 157 c64 86 119 156
122 156 3 0 43 -22 89 -50 l84 -49 74 117 c90 143 181 301 176 306 -2 1 -40
22 -84 45 -44 23 -84 46 -88 50 -5 5 12 49 37 100 25 50 46 93 46 96 0 7 -210
109 -214 104 -1 -2 -31 -58 -66 -124 -398 -754 -987 -1443 -1682 -1966 -618
-465 -1333 -812 -2061 -999 -501 -128 -934 -182 -1462 -182 -817 0 -1542 148
-2295 469 -738 314 -1456 819 -1994 1402 -377 409 -631 759 -890 1232 l-92
166 -74 -36z"/>
</g>
</svg>
